# xmcd
#
# Track frame offsets: 
#        150
#        19669
#        39205
#        59894
#        76861
#        89655
#        107748
#        123651
#
# Disc length: 1885 seconds
#
# Revision: 0
# Processed by: cddbd v1.5.2PL0 Copyright (c) Steve Scherf et al.
# Submitted via: ExactAudioCopy v0.99pb4
#
DISCID=65075b08
DTITLE=Baglan Sadvakasov - HomeWork
DYEAR=2004
DGENRE=Instrumental
TTITLE0=01. Car Music
TTITLE1=02. Autumn
TTITLE2=03. Almaty Trance
TTITLE3=04. Jungle
TTITLE4=05. Sunrise
TTITLE5=06. Magical Guitar Land
TTITLE6=07. Official Talk
TTITLE7=08. Just Friends
EXTD=
EXTT0=
EXTT1=
EXTT2=
EXTT3=
EXTT4=
EXTT5=
EXTT6=
EXTT7=
PLAYORDER=
